<svg height="512pt" viewBox="0 -47 512 512" width="512pt" xmlns="http://www.w3.org/2000/svg" xmlns:xlink="http://www.w3.org/1999/xlink"><linearGradient id="a"><stop offset="0" stop-color="#662d91"/><stop offset=".437" stop-color="#3873b3"/><stop offset="1" stop-color="#00c9dd"/></linearGradient><linearGradient id="b" gradientTransform="matrix(.990762 0 0 -.990762 0 471.618627)" gradientUnits="userSpaceOnUse" x1="-68.9032" x2="344.5334" xlink:href="#a" y1="364.0484" y2="-49.3882"/><linearGradient id="c" gradientTransform="matrix(.990762 0 0 -.990762 0 471.618627)" gradientUnits="userSpaceOnUse" x1="-47.371" x2="366.0484" xlink:href="#a" y1="385.5807" y2="-27.8387"/><linearGradient id="d" gradientTransform="matrix(.990762 0 0 -.990762 0 471.618627)" gradientUnits="userSpaceOnUse" x1="30.1452" x2="443.5645" xlink:href="#a" y1="463.0968" y2="49.6774"/><linearGradient id="e" gradientTransform="matrix(.990762 0 0 -.990762 0 471.618627)" gradientUnits="userSpaceOnUse" x1="103.3548" x2="516.7742" xlink:href="#a" y1="536.3065" y2="122.8871"/><linearGradient id="f" gradientTransform="matrix(.990762 0 0 -.990762 0 471.618627)" gradientUnits="userSpaceOnUse" x1="129.1935" x2="542.6129" xlink:href="#a" y1="562.1451" y2="148.7258"/><linearGradient id="g" gradientTransform="matrix(.990762 0 0 -.990762 0 471.618627)" gradientUnits="userSpaceOnUse" x1="-25.8387" x2="387.5979" xlink:href="#a" y1="407.1129" y2="-6.3237"/><linearGradient id="h" gradientTransform="matrix(.990762 0 0 -.990762 0 471.618627)" gradientUnits="userSpaceOnUse" x1="51.6774" x2="465.114" xlink:href="#a" y1="484.629" y2="71.1925"/><linearGradient id="i" gradientTransform="matrix(.990762 0 0 -.990762 0 471.618627)" gradientUnits="userSpaceOnUse" x1="64.5968" x2="478.0334" xlink:href="#a" y1="497.5484" y2="84.1118"/><linearGradient id="j" gradientTransform="matrix(.990762 0 0 -.990762 0 471.618627)" gradientUnits="userSpaceOnUse" x1="81.8226" x2="495.2592" xlink:href="#a" y1="514.7742" y2="101.3376"/><linearGradient id="k" gradientTransform="matrix(.990762 0 0 -.990762 0 471.618627)" gradientUnits="userSpaceOnUse" x1="0" x2="413.4366" xlink:href="#a" y1="432.9516" y2="19.515"/><linearGradient id="l" gradientTransform="matrix(.990762 0 0 -.990762 0 471.618627)" gradientUnits="userSpaceOnUse" x1="159.3387" x2="572.7753" xlink:href="#a" y1="592.2903" y2="178.8537"/><linearGradient id="m" gradientTransform="matrix(.990762 0 0 -.990762 0 471.618627)" gradientUnits="userSpaceOnUse" x1="180.871" x2="594.3076" xlink:href="#a" y1="613.8226" y2="200.386"/><linearGradient id="n" gradientTransform="matrix(.990762 0 0 -.990762 0 471.618627)" gradientUnits="userSpaceOnUse" x1="-180.871" x2="232.5484" xlink:href="#a" y1="252.0806" y2="-161.3387"/><linearGradient id="o" gradientTransform="matrix(.990762 0 0 -.990762 0 471.618627)" gradientUnits="userSpaceOnUse" x1="-159.3387" x2="254.0806" xlink:href="#a" y1="273.6129" y2="-139.8065"/><linearGradient id="p" gradientTransform="matrix(.990762 0 0 -.990762 0 471.618627)" gradientUnits="userSpaceOnUse" x1="-137.8065" x2="275.6129" xlink:href="#a" y1="295.1452" y2="-118.2742"/><linearGradient id="q" gradientTransform="matrix(.990762 0 0 -.990762 0 471.618627)" gradientUnits="userSpaceOnUse" x1="-111.9677" x2="301.4516" xlink:href="#a" y1="320.9839" y2="-92.4355"/><linearGradient id="r" gradientTransform="matrix(.990762 0 0 -.990762 0 471.618627)" gradientUnits="userSpaceOnUse" x1="-81.8226" x2="331.5968" xlink:href="#a" y1="351.129" y2="-62.2903"/><linearGradient id="s" gradientTransform="matrix(.990762 0 0 -.990762 0 471.618627)" gradientUnits="userSpaceOnUse" x1="-60.2903" x2="353.129" xlink:href="#a" y1="372.6613" y2="-40.7581"/><linearGradient id="t" gradientTransform="matrix(.990762 0 0 -.990762 0 471.618627)" gradientUnits="userSpaceOnUse" x1="-38.7581" x2="374.6613" xlink:href="#a" y1="394.1935" y2="-19.2258"/><linearGradient id="u" gradientTransform="matrix(.990762 0 0 -.990762 0 471.618627)" gradientUnits="userSpaceOnUse" x1="-8.6129" x2="404.8065" xlink:href="#a" y1="424.3387" y2="10.9194"/><linearGradient id="v" gradientTransform="matrix(.990762 0 0 -.990762 0 471.618627)" gradientUnits="userSpaceOnUse" x1="17.2258" x2="430.6452" xlink:href="#a" y1="450.1774" y2="36.7581"/><linearGradient id="w" gradientTransform="matrix(.990762 0 0 -.990762 0 471.618627)" gradientUnits="userSpaceOnUse" x1="53.8306" x2="467.2672" xlink:href="#a" y1="486.7823" y2="73.3457"/><path d="m0 0h17.066406v375.46875h-17.066406zm0 0" fill="url(#b)"/><path d="m68.265625 375.46875v-375.46875h-34.132813v375.46875zm0 0" fill="url(#c)"/><path d="m221.867188 375.46875v-375.46875h-34.132813v375.46875zm0 0" fill="url(#d)"/><path d="m366.933594 375.46875v-375.46875h-34.132813v375.46875zm0 0" fill="url(#e)"/><path d="m418.132812 375.46875v-375.46875h-34.132812v375.46875zm0 0" fill="url(#f)"/><path d="m85.332031 0h17.066407v375.46875h-17.066407zm0 0" fill="url(#g)"/><path d="m238.933594 0h17.066406v375.46875h-17.066406zm0 0" fill="url(#h)"/><path d="m264.535156 0h17.066406v375.46875h-17.066406zm0 0" fill="url(#i)"/><path d="m298.667969 0h17.066406v375.46875h-17.066406zm0 0" fill="url(#j)"/><path d="m153.601562 375.46875h17.066407v-375.46875h-51.199219v375.46875zm0 0" fill="url(#k)"/><path d="m469.332031 375.46875h17.066407v-375.46875h-51.199219v375.46875zm0 0" fill="url(#l)"/><path d="m494.933594 0h17.066406v375.46875h-17.066406zm0 0" fill="url(#m)"/><path d="m0 401.066406h17.066406v17.066406h-17.066406zm0 0" fill="url(#n)"/><path d="m34.132812 401.066406h34.132813v17.066406h-34.132813zm0 0" fill="url(#o)"/><path d="m85.332031 401.066406h17.066407v17.066406h-17.066407zm0 0" fill="url(#p)"/><path d="m119.46875 401.066406h51.199219v17.066406h-51.199219zm0 0" fill="url(#q)"/><path d="m187.734375 401.066406h34.132813v17.066406h-34.132813zm0 0" fill="url(#r)"/><path d="m238.933594 401.066406h17.066406v17.066406h-17.066406zm0 0" fill="url(#s)"/><path d="m264.535156 401.066406h51.199219v17.066406h-51.199219zm0 0" fill="url(#t)"/><path d="m332.800781 401.066406h34.132813v17.066406h-34.132813zm0 0" fill="url(#u)"/><path d="m384 401.066406h34.132812v17.066406h-34.132812zm0 0" fill="url(#v)"/><path d="m435.199219 401.066406h76.800781v17.066406h-76.800781zm0 0" fill="url(#w)"/></svg>