<?xml version="1.0"?>
<svg xmlns="http://www.w3.org/2000/svg" viewBox="0 0 64 64" width="512" height="512"><g id="Flat"><rect x="6" y="3" width="34" height="58" rx="4" ry="4" style="fill:#b3b3b3"/><circle cx="23" cy="58" r="2" style="fill:#e6e6e6"/><rect x="6" y="9" width="34" height="46" style="fill:#e6e6e6"/><path d="M23,7a1,1,0,0,1-.38-.08,1.032,1.032,0,0,1-.33-.21,1.169,1.169,0,0,1-.21-.33A.838.838,0,0,1,22,6a1,1,0,0,1,.08-.38,1.032,1.032,0,0,1,.21-.33,1.047,1.047,0,0,1,1.42,0,1.155,1.155,0,0,1,.21.33.943.943,0,0,1,0,.76,1.169,1.169,0,0,1-.21.33A.994.994,0,0,1,23,7Z" style="fill:#e6e6e6"/><path d="M58,58.172h0A2.828,2.828,0,0,1,55.172,61h0a2.828,2.828,0,0,1-2-.828L43,50l4-4L57.172,56.172A2.828,2.828,0,0,1,58,58.172Z" style="fill:#fdb62f"/><rect x="42.5" y="44.379" width="2" height="4.243" transform="translate(-20.14 44.379) rotate(-45)" style="fill:#fdb62f"/><circle cx="29" cy="32" r="19" style="fill:#f5cf68"/><path d="M28,31H18V21H28Zm-8-2h6V23H20Z" style="fill:#02998a"/><path d="M28,43H18V33H28Zm-8-2h6V35H20Z" style="fill:#02998a"/><path d="M40,31H30V21H40Zm-8-2h6V23H32Z" style="fill:#02998a"/><rect x="22" y="25" width="2" height="2" style="fill:#02998a"/><rect x="34" y="25" width="2" height="2" style="fill:#02998a"/><rect x="22" y="37" width="2" height="2" style="fill:#02998a"/><rect x="30" y="33" width="4" height="2" style="fill:#02998a"/><rect x="32" y="35" width="4" height="2" style="fill:#02998a"/><rect x="30" y="39" width="4" height="2" style="fill:#02998a"/><rect x="32" y="41" width="2" height="2" style="fill:#02998a"/><rect x="36" y="41" width="2" height="2" style="fill:#02998a"/><rect x="38" y="37" width="2" height="4" style="fill:#02998a"/><rect x="38" y="33" width="2" height="2" style="fill:#02998a"/><rect x="36" y="37" width="2" height="2" style="fill:#02998a"/><rect x="30" y="37" width="2" height="2" style="fill:#02998a"/><rect x="43.672" y="47.379" width="5.657" height="4.243" transform="translate(-21.382 47.379) rotate(-45)" style="fill:#f80"/></g></svg>
