<?xml version="1.0"?>
<svg xmlns="http://www.w3.org/2000/svg" id="Filled_Outline" data-name="Filled Outline" viewBox="0 0 64 64" width="512" height="512"><rect x="6" y="3" width="34" height="58" rx="4" ry="4" style="fill:#b3b3b3"/><circle cx="23" cy="58" r="2" style="fill:#e6e6e6"/><rect x="6" y="9" width="34" height="46" style="fill:#e6e6e6"/><path d="M58,58.172h0A2.828,2.828,0,0,1,55.172,61h0a2.828,2.828,0,0,1-2-.828L43,50l4-4L57.172,56.172A2.828,2.828,0,0,1,58,58.172Z" style="fill:#fdb62f"/><circle cx="29" cy="32" r="19" style="fill:#f5cf68"/><rect x="43.672" y="47.379" width="5.657" height="4.243" transform="translate(-21.382 47.379) rotate(-45)" style="fill:#f80"/><path d="M41,7a5.006,5.006,0,0,0-5-5H10A5.006,5.006,0,0,0,5,7V57a5.006,5.006,0,0,0,5,5H36a5.006,5.006,0,0,0,5-5V47.962q.724-.546,1.4-1.153L43.586,48l-2,2L52.465,60.879a3.828,3.828,0,0,0,5.414-5.414L47,44.586l-2,2L43.809,45.4A19.9,19.9,0,0,0,41,16.038ZM56.465,56.879a1.829,1.829,0,0,1-2.586,2.586L47.414,53,50,50.414ZM48.586,49,46,51.586,44.414,50,47,47.414ZM7,57V56H20.78a2.954,2.954,0,0,0,0,4H10A3,3,0,0,1,7,57Zm16,2a1,1,0,1,1,1-1A1,1,0,0,1,23,59Zm16-2a3,3,0,0,1-3,3H25.22a2.954,2.954,0,0,0,0-4H39Zm8-25A18,18,0,1,1,29,14,18.021,18.021,0,0,1,47,32ZM29,12A20,20,0,1,0,39,49.294V54H7V10H39v4.706A19.853,19.853,0,0,0,29,12ZM7,8V7a3,3,0,0,1,3-3H36a3,3,0,0,1,3,3V8Z"/><path d="M23.71,5.29a1.047,1.047,0,0,0-1.42,0,1.032,1.032,0,0,0-.21.33A1,1,0,0,0,22,6a.838.838,0,0,0,.08.38,1.169,1.169,0,0,0,.21.33,1.032,1.032,0,0,0,.33.21.99.99,0,0,0,1.09-.21,1.169,1.169,0,0,0,.21-.33.942.942,0,0,0,0-.76A1.155,1.155,0,0,0,23.71,5.29Z"/><path d="M18,31H28V21H18Zm2-8h6v6H20Z"/><path d="M18,43H28V33H18Zm2-8h6v6H20Z"/><path d="M40,21H30V31H40Zm-2,8H32V23h6Z"/><rect x="22" y="25" width="2" height="2"/><rect x="34" y="25" width="2" height="2"/><rect x="22" y="37" width="2" height="2"/><polygon points="36 35 34 35 34 33 30 33 30 35 32 35 32 37 36 37 36 35"/><polygon points="32 43 34 43 34 41 34 39 32 39 32 37 30 37 30 39 30 41 32 41 32 43"/><rect x="36" y="41" width="2" height="2"/><rect x="38" y="33" width="2" height="2"/><polygon points="38 39 38 41 40 41 40 37 38 37 36 37 36 39 38 39"/></svg>
