<svg height="511pt" viewBox="0 -50 511.99823 511" width="511pt" xmlns="http://www.w3.org/2000/svg"><path d="m377.8125 282.769531h-362.25c-8.59375 0-15.5625-6.964843-15.5625-15.5625v-251.144531c0-8.59375 6.96875-15.5625 15.5625-15.5625h362.25c8.59375 0 15.5625 6.96875 15.5625 15.5625v251.144531c0 8.597657-6.96875 15.5625-15.5625 15.5625zm0 0" fill="#dae8f7"/><path d="m15.5625.5c-8.59375 0-15.5625 6.96875-15.5625 15.5625v251.144531c0 8.597657 6.96875 15.5625 15.5625 15.5625h181.125v-282.269531zm0 0" fill="#f2f7fc"/><g fill="#576993"><path d="m321.9375 199.210938c-8.597656 0-15.5625-6.96875-15.5625-15.5625v-84.027344c0-8.59375 6.964844-15.5625 15.5625-15.5625 8.59375 0 15.5625 6.96875 15.5625 15.5625v84.027344c0 8.59375-6.96875 15.5625-15.5625 15.5625zm0 0"/><path d="m271.835938 199.210938c-8.59375 0-15.5625-6.96875-15.5625-15.5625v-84.027344c0-8.59375 6.96875-15.5625 15.5625-15.5625 8.597656 0 15.5625 6.96875 15.5625 15.5625v84.027344c0 8.59375-6.964844 15.5625-15.5625 15.5625zm0 0"/><path d="m221.738281 199.210938c-8.59375 0-15.5625-6.96875-15.5625-15.5625v-84.027344c0-8.59375 6.96875-15.5625 15.5625-15.5625s15.5625 6.96875 15.5625 15.5625v84.027344c0 8.59375-6.96875 15.5625-15.5625 15.5625zm0 0"/></g><path d="m171.636719 199.210938c-8.59375 0-15.5625-6.96875-15.5625-15.5625v-84.027344c0-8.59375 6.96875-15.5625 15.5625-15.5625s15.5625 6.96875 15.5625 15.5625v84.027344c0 8.59375-6.96875 15.5625-15.5625 15.5625zm0 0" fill="#7987a9"/><path d="m121.539062 199.210938c-8.59375 0-15.5625-6.96875-15.5625-15.5625v-84.027344c0-8.59375 6.96875-15.5625 15.5625-15.5625s15.5625 6.96875 15.5625 15.5625v84.027344c0 8.59375-6.96875 15.5625-15.5625 15.5625zm0 0" fill="#7987a9"/><path d="m71.4375 199.210938c-8.59375 0-15.5625-6.96875-15.5625-15.5625v-84.027344c0-8.59375 6.96875-15.5625 15.5625-15.5625s15.5625 6.96875 15.5625 15.5625v84.027344c0 8.59375-6.96875 15.5625-15.5625 15.5625zm0 0" fill="#7987a9"/><path d="m479.125 411.144531c-5.945312 0-11.40625-2.210937-15.488281-6.300781l-72.433594-72.429688c-1.460937-1.457031-2.28125-3.4375-2.28125-5.503906 0-2.0625.820313-4.042968 2.28125-5.5l31.058594-31.0625c1.460937-1.457031 3.441406-2.277344 5.503906-2.277344 2.066406 0 4.042969.820313 5.503906 2.277344l72.433594 72.4375c4.371094 4.371094 6.59375 10.316406 6.261719 16.738282-.316406 6.125-2.949219 11.953124-7.410156 16.414062l-7.765626 7.761719c-4.460937 4.464843-10.289062 7.097656-16.410156 7.414062-.421875.019531-.839844.03125-1.253906.03125zm0 0" fill="#3f58ef"/><path d="m354.960938 350.671875c-25.792969 0-50.042969-10.046875-68.285157-28.285156-18.238281-18.238281-28.28125-42.488281-28.28125-68.28125 0-25.796875 10.042969-50.042969 28.28125-68.28125 18.242188-18.238281 42.492188-28.285157 68.285157-28.285157 25.789062 0 50.039062 10.042969 68.277343 28.28125 18.242188 18.242188 28.289063 42.492188 28.289063 68.285157 0 25.789062-10.046875 50.042969-28.289063 68.28125-18.238281 18.238281-42.488281 28.285156-68.277343 28.285156zm0 0" fill="#9caeee"/><path d="m354.960938 188.664062c-17.480469 0-33.914063 6.808594-46.277344 19.167969-12.359375 12.359375-19.164063 28.792969-19.164063 46.273438s6.804688 33.910156 19.164063 46.269531c12.363281 12.363281 28.796875 19.171875 46.277344 19.167969 17.476562 0 33.910156-6.804688 46.269531-19.164063 12.363281-12.363281 19.171875-28.796875 19.171875-46.273437 0-17.480469-6.808594-33.914063-19.171875-46.277344-12.359375-12.359375-28.792969-19.164063-46.269531-19.164063zm0 0" fill="#3f58ef"/></svg>